<svg id="Layer_1" data-name="Layer 1" xmlns="http://www.w3.org/2000/svg" viewBox="0 0 200 200">
  <g id="pen">
    <path id="pen_top" data-name="pen top" d="M158,82.76l-45.63,94.1H87.63L42,82.76C73.36,66,90.73,26.83,97.13,9.5V110.56a8.82,8.82,0,1,0,5.72,0V9.5C109.25,26.83,126.61,66,158,82.76Z" style="fill: #509dff;stroke: #509dff;stroke-miterlimit: 10;stroke-width: 3px"/>
    <rect id="ferule" x="87.24" y="185.38" width="25.51" height="13.11" style="fill: #509dff;stroke: #509dff;stroke-miterlimit: 10;stroke-width: 2px"/>
    <path id="pen_top_shadow" data-name="pen top shadow" d="M158,82.76l-45.64,94.1h-7.51C99.6,152.34,85.43,146.52,73,146.62l-3.08-6.38c6.14-3.89,14-8.9,23.72-15.24a8.83,8.83,0,0,0,15.2-6.1,8.53,8.53,0,0,0-.91-3.91c21.46-21.1,8-70-1.23-95.93C115,38.51,131.52,68.59,158,82.76Z" style="opacity: 0.38"/>
    <path id="ferule_shadow" data-name="ferule shadow" d="M114.05,196.19v2.31H88.54v-3.92a7.68,7.68,0,0,0,3.06-1.53,1.46,1.46,0,0,0,.89,2.21,2.15,2.15,0,0,0,2.27-1.37A4.07,4.07,0,0,0,95,192a2.65,2.65,0,0,0,4.77.65,2.49,2.49,0,0,0,2.41,2.73,2.59,2.59,0,0,0,2.36-2.81,2.35,2.35,0,0,0,2.68,1.34,3.9,3.9,0,0,0,2.47-2,11.38,11.38,0,0,0,1-3.1,9.87,9.87,0,0,0,.85,4.83A6,6,0,0,0,114.05,196.19Z" style="opacity: 0.38"/>
  </g>
</svg>
