<svg id="Layer_1" data-name="Layer 1" xmlns="http://www.w3.org/2000/svg" viewBox="0 0 400 200">
  <g>
    <g>
      <path d="M98.69,85.75,63,159.27H43.72L8.08,85.75c24.49-13.12,38.06-43.7,43.06-57.23v79a6.9,6.9,0,1,0,4.47,0V28.52C60.61,42.05,74.18,72.63,98.69,85.75Z" style="fill: #070f3f"/>
      <rect x="43.41" y="161.24" width="19.93" height="10.25" style="fill: #070f3f"/>
      <path d="M98.69,85.75,63,159.27H57.17c-4.1-19.16-15.17-23.71-24.9-23.63l-2.41-5c4.8-3,10.9-7,18.54-11.91A6.89,6.89,0,0,0,60.27,114a6.76,6.76,0,0,0-.71-3.06c16.76-16.49,6.27-54.7-1-75C65.11,51.18,78,74.68,98.69,85.75Z" style="opacity: 0.5700000000000001"/>
      <path d="M63.34,169.68v1.8H43.41v-3.06a5.91,5.91,0,0,0,2.39-1.19,1.14,1.14,0,0,0,.7,1.72,1.66,1.66,0,0,0,1.77-1.07,3,3,0,0,0,.19-1.5,2.1,2.1,0,0,0,1.35,1.36,2.16,2.16,0,0,0,2.37-.85A1.93,1.93,0,0,0,54.06,169a2,2,0,0,0,1.85-2.18,1.84,1.84,0,0,0,2.09,1,3.08,3.08,0,0,0,1.93-1.57,8.59,8.59,0,0,0,.79-2.42,7.65,7.65,0,0,0,.67,3.77A4.67,4.67,0,0,0,63.34,169.68Z" style="opacity: 0.5700000000000001"/>
    </g>
    <g>
      <g>
        <path d="M190.78,51.57l-6,86.8h-.56l-6.29-86.8H157.37l-7.4,86.8h-.56l-4.61-86.8H128.72l8.13,87.86L138.93,162h20.68l4.84-55.09,2.86-32.55h.56L169.65,101l2.2,33v0l.7,10.25L173.73,162h20.4l3.17-27.2L207,51.57Z" style="fill: #070f3f"/>
        <path d="M253.33,99.58a9.07,9.07,0,0,0,3.22-2.45,12.77,12.77,0,0,0,2.37-4.39,22.7,22.7,0,0,0,.92-7.07V74.08a59.65,59.65,0,0,0-.92-11.68,12.62,12.62,0,0,0-3.49-6.84,13.24,13.24,0,0,0-7.06-3.21,69.91,69.91,0,0,0-11.6-.78H213.84V162h16.08V107.48h7.27q4.19,0,5.31,1.74c.74,1.16,1.12,3.24,1.12,6.23V162h16.22V118a33,33,0,0,0-.72-7.54,14,14,0,0,0-2-4.83,8.63,8.63,0,0,0-3.16-2.8,20.5,20.5,0,0,0-4-1.46v-.55A21.61,21.61,0,0,0,253.33,99.58Zm-11-6.36q-1.26,1.53-5.17,1.53h-7.27V65.54h6.85a15,15,0,0,1,3.63.36,3.57,3.57,0,0,1,2.1,1.32,5.79,5.79,0,0,1,.9,2.59,34.18,34.18,0,0,1,.22,4.27V87.63Q243.62,91.68,242.36,93.22Z" style="fill: #070f3f"/>
        <path d="M294.78,51.57l-8.4,49.9h-.56l-8-49.9H261.93L277.86,123v39h16.08V123l16.49-71.42Z" style="fill: #070f3f"/>
        <path d="M312.38,51.57V65h12.17v97h16.07V65h12V51.57Z" style="fill: #070f3f"/>
        <path d="M376.4,148.15V93.64h15V80.92h-15V64.84h15.38V51.57H360.33V162h31.59V148.15Z" style="fill: #070f3f"/>
      </g>
      <g style="opacity: 0.5700000000000001">
        <path d="M163.22,109.39a19.05,19.05,0,0,1,1.23-2.48L159.61,162H138.93l-2.08-22.57c5.11.49,10.15,4.17,10.63,9.42,0-3.46.05-6.92.08-10.37,1.26,2.38,2.5,4.75,3.76,7.11,5.26-3.82,7.45-10.6,8.41-17S160.79,115.43,163.22,109.39Z" style="opacity: 0.38"/>
        <path d="M177.83,98.48a123,123,0,0,0-6,35.48l-2.2-33A12.13,12.13,0,0,1,177.83,98.48Z" style="opacity: 0.38"/>
        <path d="M195,135c.78-.09,1.57-.15,2.35-.17L194.13,162h-20.4l-1.18-17.74c1.15-1.32,4.41-1.26,5.79.48,1.8,2.26,2,5.57,4.07,7.62,3.38,3.4,9.72,1,11.87-3.28S195.73,139.71,195,135Z" style="opacity: 0.38"/>
        <path d="M213.92,139.37h-.08v-.05Z" style="opacity: 0.38"/>
        <path d="M227,144.75q1.53-1.51,2.94-3.12V162H213.84V146.82a11.77,11.77,0,0,1,9.07,4.48c.54-5.65,1.09-11.28,1.63-16.93Q225.76,139.56,227,144.75Z" style="opacity: 0.38"/>
        <path d="M259.84,134.41V162H243.62V116.7c.32-1.13.62-2.28.88-3.43a17.2,17.2,0,0,0,3.57,12,9,9,0,0,1,9-5C252.9,124.12,255.06,131.54,259.84,134.41Z" style="opacity: 0.38"/>
        <path d="M287.39,133.61c-1,3.71-1.86,8.1.65,11a6.59,6.59,0,0,0,5.9,2V162H277.86V127a1.91,1.91,0,0,0,.15-.28c2-3.88,2.86-8.32,5.11-12.09s6.74-6.83,10.85-5.34Q290.68,121.48,287.39,133.61Z" style="opacity: 0.38"/>
        <path d="M340.62,115.21V162H324.55V132.74a50,50,0,0,0,2.11-9.81C332.31,123.33,337.65,120,340.62,115.21Z" style="opacity: 0.38"/>
        <path d="M391.92,148.15V162H360.33V123.75a34.22,34.22,0,0,0,11.75,2.82,32.78,32.78,0,0,0,4.32,0v21.61Z" style="opacity: 0.38"/>
      </g>
    </g>
  </g>
</svg>
