<svg id="Layer_1" data-name="Layer 1" xmlns="http://www.w3.org/2000/svg" viewBox="0 0 400 200">
  <g>
    <g id="pen">
      <path id="pen_top" data-name="pen top" d="M100.21,86,65.09,158.38h-19L11,86C35.09,73,48.45,42.92,53.37,29.59v77.76a6.79,6.79,0,1,0,4.41,0V29.59C62.7,42.92,76.06,73,100.21,86Z" style="fill: #509dff;stroke: #509dff;stroke-miterlimit: 10"/>
      <rect id="ferule" x="45.76" y="160.32" width="19.63" height="10.09" style="fill: #509dff;stroke: #509dff;stroke-miterlimit: 10"/>
      <path id="pen_top_shadow" data-name="pen top shadow" d="M100.21,86,65.09,158.38H59.31c-4-18.87-14.94-23.35-24.52-23.27l-2.37-4.91c4.72-3,10.73-6.85,18.25-11.73a6.8,6.8,0,0,0,11.7-4.69,6.65,6.65,0,0,0-.71-3c16.52-16.23,6.18-53.88-.94-73.82C67.14,51.91,79.84,75.06,100.21,86Z" style="opacity: 0.38"/>
      <path id="ferule_shadow" data-name="ferule shadow" d="M66.4,168.64v1.77H46.76v-3a5.91,5.91,0,0,0,2.36-1.18,1.12,1.12,0,0,0,.69,1.7,1.65,1.65,0,0,0,1.74-1.06,3,3,0,0,0,.18-1.48,2.07,2.07,0,0,0,1.33,1.34,2.13,2.13,0,0,0,2.34-.84,1.91,1.91,0,0,0,1.85,2.1,2,2,0,0,0,1.82-2.16,1.81,1.81,0,0,0,2.07,1A3,3,0,0,0,63,165.3a8.53,8.53,0,0,0,.78-2.38,7.48,7.48,0,0,0,.66,3.71A4.63,4.63,0,0,0,66.4,168.64Z" style="opacity: 0.38"/>
    </g>
    <g id="word">
      <g id="text">
        <path d="M190.91,52.3,185,137.8h-.55l-6.19-85.5H158l-7.29,85.5h-.55l-4.54-85.5H129.79l8,86.54,2,22.23h20.36L165,106.8l2.82-32.06h.55L170.11,101l2.17,32.47v.05l.68,10.09,1.17,17.48h20.09l3.12-26.79,9.55-82Z" style="fill: #509dff;stroke: #509dff;stroke-miterlimit: 10"/>
        <path d="M252.53,99.59a9,9,0,0,0,3.17-2.42A12.59,12.59,0,0,0,258,92.84a22.59,22.59,0,0,0,.9-7V74.47A59.64,59.64,0,0,0,258,63a12.5,12.5,0,0,0-3.44-6.74,13,13,0,0,0-7-3.17,70.3,70.3,0,0,0-11.42-.76H213.64V161.07h15.84v-53.7h7.15c2.75,0,4.5.57,5.23,1.71s1.1,3.2,1.1,6.13v45.86h16V117.69a33.41,33.41,0,0,0-.7-7.43,13.82,13.82,0,0,0-2-4.76,8.44,8.44,0,0,0-3.11-2.75,19.9,19.9,0,0,0-4-1.44v-.55A20.9,20.9,0,0,0,252.53,99.59Zm-10.81-6.27q-1.23,1.52-5.09,1.51h-7.15V66.06h6.74a15.14,15.14,0,0,1,3.58.35,3.52,3.52,0,0,1,2.06,1.3,5.7,5.7,0,0,1,.89,2.55,33.53,33.53,0,0,1,.21,4.21V87.81Q243,91.8,241.72,93.32Z" style="fill: #509dff;stroke: #509dff;stroke-miterlimit: 10"/>
        <path d="M293.36,52.3l-8.28,49.15h-.55L276.69,52.3H261l15.69,70.34v38.43h15.84V122.64L308.77,52.3Z" style="fill: #509dff;stroke: #509dff;stroke-miterlimit: 10"/>
        <path d="M310.7,52.3V65.51h12v95.56h15.83V65.51h11.85V52.3Z" style="fill: #509dff;stroke: #509dff;stroke-miterlimit: 10"/>
        <path d="M373.75,147.43V93.73h14.74V81.21H373.75V65.37H388.9V52.3h-31V161.07H389V147.43Z" style="fill: #509dff;stroke: #509dff;stroke-miterlimit: 10"/>
      </g>
      <g id="text_shadow" data-name="text shadow">
        <path d="M163.78,109.25a17.88,17.88,0,0,1,1.2-2.45l-4.77,54.27H139.85l-2-22.23c5,.49,10,4.11,10.47,9.28,0-3.41,0-6.82.08-10.22,1.24,2.34,2.46,4.68,3.7,7,5.18-3.77,7.34-10.45,8.29-16.79S161.38,115.2,163.78,109.25Z" style="opacity: 0.38"/>
        <path d="M178.16,98.5a120.79,120.79,0,0,0-5.88,34.95L170.11,101A11.93,11.93,0,0,1,178.16,98.5Z" style="opacity: 0.38"/>
        <path d="M195,134.45c.76-.09,1.54-.15,2.31-.17l-3.12,26.79H174.13L173,143.59c1.14-1.3,4.35-1.24,5.71.48,1.77,2.23,2,5.48,4,7.5,3.34,3.35,9.58,1,11.7-3.22S195.79,139.11,195,134.45Z" style="opacity: 0.38"/>
        <path d="M213.71,138.77h-.07v0Z" style="opacity: 0.38"/>
        <path d="M226.57,144.08c1-1,2-2,2.91-3.07v20.06H213.64v-15a11.63,11.63,0,0,1,8.92,4.42q.81-8.34,1.61-16.68C225,137.26,225.78,140.67,226.57,144.08Z" style="opacity: 0.38"/>
        <path d="M258.94,133.9v27.17H243V116.45c.32-1.11.61-2.25.87-3.38a17,17,0,0,0,3.52,11.87,8.88,8.88,0,0,1,8.88-4.91C252.1,123.76,254.23,131.07,258.94,133.9Z" style="opacity: 0.38"/>
        <path d="M286.08,133.1c-1,3.66-1.84,8,.64,10.83a6.49,6.49,0,0,0,5.81,1.95v15.19H276.69V126.63a1.82,1.82,0,0,0,.15-.27c2-3.82,2.82-8.2,5-11.91s6.64-6.73,10.69-5.26C290.41,117.17,288.23,125.14,286.08,133.1Z" style="opacity: 0.38"/>
        <path d="M338.51,115v46.09H322.68V132.25a48.56,48.56,0,0,0,2.08-9.67C330.33,123,335.59,119.66,338.51,115Z" style="opacity: 0.38"/>
        <path d="M389,147.43v13.64H357.93V123.39a33.88,33.88,0,0,0,11.57,2.79,35.45,35.45,0,0,0,4.25,0v21.28Z" style="opacity: 0.38"/>
      </g>
    </g>
  </g>
</svg>
